<mxfile host="app.diagrams.net" modified="2023-06-23T19:52:35.152Z" agent="Mozilla/5.0 (Windows NT 10.0; Win64; x64) AppleWebKit/537.36 (KHTML, like Gecko) Chrome/113.0.0.0 Safari/537.36 OPR/99.0.0.0" etag="24I0_RPCJbx_tpLL61ho" version="21.5.0" type="device" pages="4">
  <diagram name="Страница 1" id="XoVLLHC2TWKrYa9B5QYN">
    <mxGraphModel dx="1403" dy="803" grid="1" gridSize="10" guides="1" tooltips="1" connect="1" arrows="1" fold="1" page="1" pageScale="1" pageWidth="827" pageHeight="1169" math="0" shadow="0">
      <root>
        <mxCell id="0" />
        <mxCell id="1" parent="0" />
        <mxCell id="UrGkbfWW5xK3AXGhJ3SK-3" value="" style="edgeStyle=orthogonalEdgeStyle;rounded=0;orthogonalLoop=1;jettySize=auto;html=1;" edge="1" parent="1">
          <mxGeometry relative="1" as="geometry">
            <mxPoint x="414" y="120" as="sourcePoint" />
            <mxPoint x="414" y="180" as="targetPoint" />
          </mxGeometry>
        </mxCell>
        <mxCell id="UrGkbfWW5xK3AXGhJ3SK-4" value="&lt;div style=&quot;text-align: justify; font-size: 11px;&quot;&gt;&lt;font color=&quot;#ffffff&quot; style=&quot;font-size: 11px; background-color: rgb(0, 0, 0);&quot;&gt;Задача 1:&lt;span style=&quot;font-family: Roboto, &amp;quot;San Francisco&amp;quot;, &amp;quot;Helvetica Neue&amp;quot;, Helvetica, Arial; text-align: start;&quot;&gt;&amp;nbsp;Напишите программу, которая на вход принимает два числа и выдаёт, какое число большее, а какое меньшее.&lt;/span&gt;&lt;/font&gt;&lt;/div&gt;&lt;font color=&quot;#ffffff&quot; style=&quot;font-size: 11px;&quot;&gt;&lt;span style=&quot;font-family: Roboto, &amp;quot;San Francisco&amp;quot;, &amp;quot;Helvetica Neue&amp;quot;, Helvetica, Arial; text-align: start;&quot;&gt;&lt;div style=&quot;text-align: justify;&quot;&gt;a = 5; b = 7 -&amp;gt; max = 7&lt;/div&gt;&lt;/span&gt;&lt;span style=&quot;font-family: Roboto, &amp;quot;San Francisco&amp;quot;, &amp;quot;Helvetica Neue&amp;quot;, Helvetica, Arial; text-align: start; background-color: rgb(255, 255, 255);&quot;&gt;&lt;div style=&quot;text-align: justify;&quot;&gt;a = 2 b = 10 -&amp;gt; max = 10&lt;/div&gt;&lt;/span&gt;&lt;span style=&quot;font-family: Roboto, &amp;quot;San Francisco&amp;quot;, &amp;quot;Helvetica Neue&amp;quot;, Helvetica, Arial; text-align: start; background-color: rgb(255, 255, 255);&quot;&gt;&lt;div style=&quot;text-align: justify;&quot;&gt;a = -9 b = -3 -&amp;gt; max = -3&lt;/div&gt;&lt;/span&gt;&lt;/font&gt;" style="text;html=1;align=center;verticalAlign=middle;resizable=0;points=[];autosize=1;strokeColor=none;fillColor=none;strokeWidth=1;sketch=1;curveFitting=1;jiggle=2;" vertex="1" parent="1">
          <mxGeometry y="20" width="650" height="70" as="geometry" />
        </mxCell>
        <mxCell id="UrGkbfWW5xK3AXGhJ3SK-5" value="Start" style="rounded=0;whiteSpace=wrap;html=1;sketch=1;hachureGap=4;jiggle=2;curveFitting=1;fontFamily=Architects Daughter;fontSource=https%3A%2F%2Ffonts.googleapis.com%2Fcss%3Ffamily%3DArchitects%2BDaughter;fontSize=20;" vertex="1" parent="1">
          <mxGeometry x="354" y="60" width="120" height="60" as="geometry" />
        </mxCell>
        <mxCell id="j1YV57kl4aS0tmMWNVkB-2" value="" style="edgeStyle=orthogonalEdgeStyle;rounded=0;sketch=1;hachureGap=4;jiggle=2;curveFitting=1;orthogonalLoop=1;jettySize=auto;html=1;fontFamily=Architects Daughter;fontSource=https%3A%2F%2Ffonts.googleapis.com%2Fcss%3Ffamily%3DArchitects%2BDaughter;fontSize=16;" edge="1" parent="1" target="j1YV57kl4aS0tmMWNVkB-1">
          <mxGeometry relative="1" as="geometry">
            <mxPoint x="414" y="240" as="sourcePoint" />
          </mxGeometry>
        </mxCell>
        <mxCell id="j1YV57kl4aS0tmMWNVkB-5" value="NO" style="edgeStyle=orthogonalEdgeStyle;rounded=0;sketch=1;hachureGap=4;jiggle=2;curveFitting=1;orthogonalLoop=1;jettySize=auto;html=1;exitX=0;exitY=0.5;exitDx=0;exitDy=0;entryX=0.5;entryY=0;entryDx=0;entryDy=0;fontFamily=Architects Daughter;fontSource=https%3A%2F%2Ffonts.googleapis.com%2Fcss%3Ffamily%3DArchitects%2BDaughter;fontSize=16;" edge="1" parent="1" source="j1YV57kl4aS0tmMWNVkB-1" target="j1YV57kl4aS0tmMWNVkB-3">
          <mxGeometry relative="1" as="geometry" />
        </mxCell>
        <mxCell id="j1YV57kl4aS0tmMWNVkB-6" value="YES" style="edgeStyle=orthogonalEdgeStyle;rounded=0;sketch=1;hachureGap=4;jiggle=2;curveFitting=1;orthogonalLoop=1;jettySize=auto;html=1;exitX=1;exitY=0.5;exitDx=0;exitDy=0;entryX=0.5;entryY=0;entryDx=0;entryDy=0;fontFamily=Architects Daughter;fontSource=https%3A%2F%2Ffonts.googleapis.com%2Fcss%3Ffamily%3DArchitects%2BDaughter;fontSize=16;" edge="1" parent="1" source="j1YV57kl4aS0tmMWNVkB-1" target="j1YV57kl4aS0tmMWNVkB-4">
          <mxGeometry relative="1" as="geometry" />
        </mxCell>
        <mxCell id="j1YV57kl4aS0tmMWNVkB-1" value="a &amp;gt; b" style="rhombus;whiteSpace=wrap;html=1;sketch=1;hachureGap=4;jiggle=2;curveFitting=1;fontFamily=Architects Daughter;fontSource=https%3A%2F%2Ffonts.googleapis.com%2Fcss%3Ffamily%3DArchitects%2BDaughter;fontSize=20;" vertex="1" parent="1">
          <mxGeometry x="340" y="270" width="146" height="80" as="geometry" />
        </mxCell>
        <mxCell id="j1YV57kl4aS0tmMWNVkB-9" style="edgeStyle=orthogonalEdgeStyle;rounded=0;sketch=1;hachureGap=4;jiggle=2;curveFitting=1;orthogonalLoop=1;jettySize=auto;html=1;exitX=0.5;exitY=1;exitDx=0;exitDy=0;entryX=0.5;entryY=0;entryDx=0;entryDy=0;fontFamily=Architects Daughter;fontSource=https%3A%2F%2Ffonts.googleapis.com%2Fcss%3Ffamily%3DArchitects%2BDaughter;fontSize=16;" edge="1" parent="1" source="j1YV57kl4aS0tmMWNVkB-3" target="j1YV57kl4aS0tmMWNVkB-8">
          <mxGeometry relative="1" as="geometry" />
        </mxCell>
        <mxCell id="j1YV57kl4aS0tmMWNVkB-3" value="min = a&lt;br&gt;max = b" style="rounded=0;whiteSpace=wrap;html=1;sketch=1;hachureGap=4;jiggle=2;curveFitting=1;fontFamily=Architects Daughter;fontSource=https%3A%2F%2Ffonts.googleapis.com%2Fcss%3Ffamily%3DArchitects%2BDaughter;fontSize=20;" vertex="1" parent="1">
          <mxGeometry x="220" y="420" width="120" height="60" as="geometry" />
        </mxCell>
        <mxCell id="j1YV57kl4aS0tmMWNVkB-10" style="edgeStyle=orthogonalEdgeStyle;rounded=0;sketch=1;hachureGap=4;jiggle=2;curveFitting=1;orthogonalLoop=1;jettySize=auto;html=1;exitX=0.5;exitY=1;exitDx=0;exitDy=0;entryX=0.5;entryY=0;entryDx=0;entryDy=0;fontFamily=Architects Daughter;fontSource=https%3A%2F%2Ffonts.googleapis.com%2Fcss%3Ffamily%3DArchitects%2BDaughter;fontSize=16;" edge="1" parent="1" source="j1YV57kl4aS0tmMWNVkB-4" target="j1YV57kl4aS0tmMWNVkB-8">
          <mxGeometry relative="1" as="geometry" />
        </mxCell>
        <mxCell id="j1YV57kl4aS0tmMWNVkB-4" value="min = b&lt;br&gt;max =a" style="rounded=0;whiteSpace=wrap;html=1;sketch=1;hachureGap=4;jiggle=2;curveFitting=1;fontFamily=Architects Daughter;fontSource=https%3A%2F%2Ffonts.googleapis.com%2Fcss%3Ffamily%3DArchitects%2BDaughter;fontSize=20;" vertex="1" parent="1">
          <mxGeometry x="486" y="420" width="120" height="60" as="geometry" />
        </mxCell>
        <mxCell id="j1YV57kl4aS0tmMWNVkB-12" value="" style="edgeStyle=orthogonalEdgeStyle;rounded=0;sketch=1;hachureGap=4;jiggle=2;curveFitting=1;orthogonalLoop=1;jettySize=auto;html=1;fontFamily=Architects Daughter;fontSource=https%3A%2F%2Ffonts.googleapis.com%2Fcss%3Ffamily%3DArchitects%2BDaughter;fontSize=16;" edge="1" parent="1" source="j1YV57kl4aS0tmMWNVkB-8" target="j1YV57kl4aS0tmMWNVkB-11">
          <mxGeometry relative="1" as="geometry" />
        </mxCell>
        <mxCell id="j1YV57kl4aS0tmMWNVkB-8" value="&lt;font style=&quot;font-size: 17px;&quot;&gt;Print(max,min)&lt;/font&gt;" style="rounded=1;whiteSpace=wrap;html=1;sketch=1;hachureGap=4;jiggle=2;curveFitting=1;fontFamily=Architects Daughter;fontSource=https%3A%2F%2Ffonts.googleapis.com%2Fcss%3Ffamily%3DArchitects%2BDaughter;fontSize=20;" vertex="1" parent="1">
          <mxGeometry x="350" y="550" width="120" height="60" as="geometry" />
        </mxCell>
        <mxCell id="j1YV57kl4aS0tmMWNVkB-11" value="Finish" style="rounded=0;whiteSpace=wrap;html=1;sketch=1;hachureGap=4;jiggle=2;curveFitting=1;fontFamily=Architects Daughter;fontSource=https%3A%2F%2Ffonts.googleapis.com%2Fcss%3Ffamily%3DArchitects%2BDaughter;fontSize=20;" vertex="1" parent="1">
          <mxGeometry x="350" y="690" width="120" height="60" as="geometry" />
        </mxCell>
        <mxCell id="nKwxJLWzxDuPhPyDnaQx-1" value="int a, b" style="shape=parallelogram;perimeter=parallelogramPerimeter;whiteSpace=wrap;html=1;fixedSize=1;sketch=1;hachureGap=4;jiggle=2;curveFitting=1;fontFamily=Architects Daughter;fontSource=https%3A%2F%2Ffonts.googleapis.com%2Fcss%3Ffamily%3DArchitects%2BDaughter;fontSize=20;" vertex="1" parent="1">
          <mxGeometry x="350" y="180" width="120" height="60" as="geometry" />
        </mxCell>
      </root>
    </mxGraphModel>
  </diagram>
  <diagram id="7RnHLtSOaH86xcL_CCK3" name="Страница 2">
    <mxGraphModel dx="1695" dy="970" grid="1" gridSize="10" guides="1" tooltips="1" connect="1" arrows="1" fold="1" page="1" pageScale="1" pageWidth="827" pageHeight="1169" math="0" shadow="0">
      <root>
        <mxCell id="0" />
        <mxCell id="1" parent="0" />
        <mxCell id="PcL1UQi3-E0jZFYymGeG-1" value="&lt;div style=&quot;text-align: justify;&quot;&gt;&lt;span style=&quot;color: rgb(255, 255, 255); background-color: rgb(0, 0, 0);&quot;&gt;Задача 2:&lt;/span&gt;&lt;span style=&quot;color: rgb(255, 255, 255); background-color: rgb(0, 0, 0); font-family: Roboto, &amp;quot;San Francisco&amp;quot;, &amp;quot;Helvetica Neue&amp;quot;, Helvetica, Arial; font-size: 15px;&quot;&gt;&amp;nbsp;Напишите программу, которая принимает на вход три числа и выдаёт максимальное из этих чисел.&lt;/span&gt;&lt;/div&gt;&lt;span style=&quot;background-color: rgb(0, 0, 0);&quot;&gt;&lt;div style=&quot;text-align: justify;&quot;&gt;&lt;span style=&quot;font-family: Roboto, &amp;quot;San Francisco&amp;quot;, &amp;quot;Helvetica Neue&amp;quot;, Helvetica, Arial; font-size: 15px; color: rgb(255, 255, 255);&quot;&gt;2, 3, 7 -&amp;gt; 7&lt;/span&gt;&lt;/div&gt;&lt;font color=&quot;#ffffff&quot;&gt;&lt;div style=&quot;text-align: justify;&quot;&gt;&lt;span style=&quot;font-family: Roboto, &amp;quot;San Francisco&amp;quot;, &amp;quot;Helvetica Neue&amp;quot;, Helvetica, Arial; font-size: 15px;&quot;&gt;44 5 78 -&amp;gt; 78&lt;/span&gt;&lt;/div&gt;&lt;span style=&quot;font-family: Roboto, &amp;quot;San Francisco&amp;quot;, &amp;quot;Helvetica Neue&amp;quot;, Helvetica, Arial; font-size: 15px;&quot;&gt;&lt;div style=&quot;text-align: justify;&quot;&gt;22 3 9 -&amp;gt; 22&lt;/div&gt;&lt;/span&gt;&lt;/font&gt;&lt;/span&gt;" style="text;html=1;strokeColor=none;fillColor=none;align=left;verticalAlign=middle;whiteSpace=wrap;rounded=0;fontSize=20;fontFamily=Architects Daughter;" vertex="1" parent="1">
          <mxGeometry x="30" y="20" width="410" height="200" as="geometry" />
        </mxCell>
        <mxCell id="Niy6fWAZyJpjJj73x80J-1" value="" style="edgeStyle=orthogonalEdgeStyle;rounded=0;orthogonalLoop=1;jettySize=auto;html=1;" edge="1" parent="1">
          <mxGeometry relative="1" as="geometry">
            <mxPoint x="415" y="200" as="sourcePoint" />
            <mxPoint x="415" y="260" as="targetPoint" />
          </mxGeometry>
        </mxCell>
        <mxCell id="Niy6fWAZyJpjJj73x80J-2" value="Start" style="rounded=0;whiteSpace=wrap;html=1;sketch=1;hachureGap=4;jiggle=2;curveFitting=1;fontFamily=Architects Daughter;fontSource=https%3A%2F%2Ffonts.googleapis.com%2Fcss%3Ffamily%3DArchitects%2BDaughter;fontSize=20;" vertex="1" parent="1">
          <mxGeometry x="354" y="140" width="120" height="60" as="geometry" />
        </mxCell>
        <mxCell id="Niy6fWAZyJpjJj73x80J-3" value="" style="edgeStyle=orthogonalEdgeStyle;rounded=0;sketch=1;hachureGap=4;jiggle=2;curveFitting=1;orthogonalLoop=1;jettySize=auto;html=1;fontFamily=Architects Daughter;fontSource=https%3A%2F%2Ffonts.googleapis.com%2Fcss%3Ffamily%3DArchitects%2BDaughter;fontSize=16;" edge="1" parent="1" target="Niy6fWAZyJpjJj73x80J-5">
          <mxGeometry relative="1" as="geometry">
            <mxPoint x="414" y="320" as="sourcePoint" />
          </mxGeometry>
        </mxCell>
        <mxCell id="Niy6fWAZyJpjJj73x80J-10" value="Yes" style="edgeStyle=orthogonalEdgeStyle;rounded=0;sketch=1;hachureGap=4;jiggle=2;curveFitting=1;orthogonalLoop=1;jettySize=auto;html=1;fontFamily=Architects Daughter;fontSource=https%3A%2F%2Ffonts.googleapis.com%2Fcss%3Ffamily%3DArchitects%2BDaughter;fontSize=16;" edge="1" parent="1" source="Niy6fWAZyJpjJj73x80J-5" target="Niy6fWAZyJpjJj73x80J-9">
          <mxGeometry relative="1" as="geometry" />
        </mxCell>
        <mxCell id="Niy6fWAZyJpjJj73x80J-13" value="No" style="edgeStyle=orthogonalEdgeStyle;rounded=0;sketch=1;hachureGap=4;jiggle=2;curveFitting=1;orthogonalLoop=1;jettySize=auto;html=1;fontFamily=Architects Daughter;fontSource=https%3A%2F%2Ffonts.googleapis.com%2Fcss%3Ffamily%3DArchitects%2BDaughter;fontSize=16;" edge="1" parent="1" source="Niy6fWAZyJpjJj73x80J-5" target="Niy6fWAZyJpjJj73x80J-12">
          <mxGeometry relative="1" as="geometry" />
        </mxCell>
        <mxCell id="Niy6fWAZyJpjJj73x80J-5" value="a &amp;gt; b" style="rhombus;whiteSpace=wrap;html=1;sketch=1;hachureGap=4;jiggle=2;curveFitting=1;fontFamily=Architects Daughter;fontSource=https%3A%2F%2Ffonts.googleapis.com%2Fcss%3Ffamily%3DArchitects%2BDaughter;fontSize=20;" vertex="1" parent="1">
          <mxGeometry x="341" y="360" width="146" height="80" as="geometry" />
        </mxCell>
        <mxCell id="Niy6fWAZyJpjJj73x80J-16" value="No" style="edgeStyle=orthogonalEdgeStyle;rounded=0;sketch=1;hachureGap=4;jiggle=2;curveFitting=1;orthogonalLoop=1;jettySize=auto;html=1;fontFamily=Architects Daughter;fontSource=https%3A%2F%2Ffonts.googleapis.com%2Fcss%3Ffamily%3DArchitects%2BDaughter;fontSize=16;" edge="1" parent="1" source="Niy6fWAZyJpjJj73x80J-7" target="Niy6fWAZyJpjJj73x80J-15">
          <mxGeometry relative="1" as="geometry" />
        </mxCell>
        <mxCell id="Niy6fWAZyJpjJj73x80J-20" value="Yes" style="edgeStyle=orthogonalEdgeStyle;rounded=0;sketch=1;hachureGap=4;jiggle=2;curveFitting=1;orthogonalLoop=1;jettySize=auto;html=1;exitX=0.5;exitY=1;exitDx=0;exitDy=0;entryX=0.5;entryY=0;entryDx=0;entryDy=0;fontFamily=Architects Daughter;fontSource=https%3A%2F%2Ffonts.googleapis.com%2Fcss%3Ffamily%3DArchitects%2BDaughter;fontSize=16;" edge="1" parent="1" source="Niy6fWAZyJpjJj73x80J-7" target="Niy6fWAZyJpjJj73x80J-18">
          <mxGeometry relative="1" as="geometry" />
        </mxCell>
        <mxCell id="Niy6fWAZyJpjJj73x80J-7" value="max &amp;gt; c" style="rhombus;whiteSpace=wrap;html=1;sketch=1;hachureGap=4;jiggle=2;curveFitting=1;fontFamily=Architects Daughter;fontSource=https%3A%2F%2Ffonts.googleapis.com%2Fcss%3Ffamily%3DArchitects%2BDaughter;fontSize=20;" vertex="1" parent="1">
          <mxGeometry x="520" y="610" width="155" height="80" as="geometry" />
        </mxCell>
        <mxCell id="Niy6fWAZyJpjJj73x80J-11" value="" style="edgeStyle=orthogonalEdgeStyle;rounded=0;sketch=1;hachureGap=4;jiggle=2;curveFitting=1;orthogonalLoop=1;jettySize=auto;html=1;fontFamily=Architects Daughter;fontSource=https%3A%2F%2Ffonts.googleapis.com%2Fcss%3Ffamily%3DArchitects%2BDaughter;fontSize=16;" edge="1" parent="1" source="Niy6fWAZyJpjJj73x80J-9" target="Niy6fWAZyJpjJj73x80J-7">
          <mxGeometry relative="1" as="geometry" />
        </mxCell>
        <mxCell id="Niy6fWAZyJpjJj73x80J-9" value="max = a" style="rounded=0;whiteSpace=wrap;html=1;sketch=1;hachureGap=4;jiggle=2;curveFitting=1;fontFamily=Architects Daughter;fontSource=https%3A%2F%2Ffonts.googleapis.com%2Fcss%3Ffamily%3DArchitects%2BDaughter;fontSize=20;" vertex="1" parent="1">
          <mxGeometry x="537.5" y="370" width="120" height="60" as="geometry" />
        </mxCell>
        <mxCell id="Niy6fWAZyJpjJj73x80J-14" style="edgeStyle=orthogonalEdgeStyle;rounded=0;sketch=1;hachureGap=4;jiggle=2;curveFitting=1;orthogonalLoop=1;jettySize=auto;html=1;exitX=1;exitY=0.5;exitDx=0;exitDy=0;entryX=0.5;entryY=0;entryDx=0;entryDy=0;fontFamily=Architects Daughter;fontSource=https%3A%2F%2Ffonts.googleapis.com%2Fcss%3Ffamily%3DArchitects%2BDaughter;fontSize=16;" edge="1" parent="1" source="Niy6fWAZyJpjJj73x80J-12" target="Niy6fWAZyJpjJj73x80J-7">
          <mxGeometry relative="1" as="geometry" />
        </mxCell>
        <mxCell id="Niy6fWAZyJpjJj73x80J-12" value="max = b" style="rounded=0;whiteSpace=wrap;html=1;sketch=1;hachureGap=4;jiggle=2;curveFitting=1;fontFamily=Architects Daughter;fontSource=https%3A%2F%2Ffonts.googleapis.com%2Fcss%3Ffamily%3DArchitects%2BDaughter;fontSize=20;" vertex="1" parent="1">
          <mxGeometry x="354" y="520" width="120" height="60" as="geometry" />
        </mxCell>
        <mxCell id="Niy6fWAZyJpjJj73x80J-19" style="edgeStyle=orthogonalEdgeStyle;rounded=0;sketch=1;hachureGap=4;jiggle=2;curveFitting=1;orthogonalLoop=1;jettySize=auto;html=1;exitX=0.5;exitY=1;exitDx=0;exitDy=0;entryX=0.5;entryY=0;entryDx=0;entryDy=0;fontFamily=Architects Daughter;fontSource=https%3A%2F%2Ffonts.googleapis.com%2Fcss%3Ffamily%3DArchitects%2BDaughter;fontSize=16;" edge="1" parent="1" source="Niy6fWAZyJpjJj73x80J-15" target="Niy6fWAZyJpjJj73x80J-18">
          <mxGeometry relative="1" as="geometry" />
        </mxCell>
        <mxCell id="Niy6fWAZyJpjJj73x80J-15" value="max = c" style="rounded=0;whiteSpace=wrap;html=1;sketch=1;hachureGap=4;jiggle=2;curveFitting=1;fontFamily=Architects Daughter;fontSource=https%3A%2F%2Ffonts.googleapis.com%2Fcss%3Ffamily%3DArchitects%2BDaughter;fontSize=20;" vertex="1" parent="1">
          <mxGeometry x="354" y="620" width="120" height="60" as="geometry" />
        </mxCell>
        <mxCell id="Niy6fWAZyJpjJj73x80J-17" value="Finish" style="rounded=1;whiteSpace=wrap;html=1;sketch=1;hachureGap=4;jiggle=2;curveFitting=1;fontFamily=Architects Daughter;fontSource=https%3A%2F%2Ffonts.googleapis.com%2Fcss%3Ffamily%3DArchitects%2BDaughter;fontSize=20;" vertex="1" parent="1">
          <mxGeometry x="354" y="890" width="120" height="60" as="geometry" />
        </mxCell>
        <mxCell id="Niy6fWAZyJpjJj73x80J-21" value="" style="edgeStyle=orthogonalEdgeStyle;rounded=0;sketch=1;hachureGap=4;jiggle=2;curveFitting=1;orthogonalLoop=1;jettySize=auto;html=1;fontFamily=Architects Daughter;fontSource=https%3A%2F%2Ffonts.googleapis.com%2Fcss%3Ffamily%3DArchitects%2BDaughter;fontSize=16;" edge="1" parent="1" source="Niy6fWAZyJpjJj73x80J-18" target="Niy6fWAZyJpjJj73x80J-17">
          <mxGeometry relative="1" as="geometry" />
        </mxCell>
        <mxCell id="Niy6fWAZyJpjJj73x80J-18" value="Print(max)" style="rounded=0;whiteSpace=wrap;html=1;sketch=1;hachureGap=4;jiggle=2;curveFitting=1;fontFamily=Architects Daughter;fontSource=https%3A%2F%2Ffonts.googleapis.com%2Fcss%3Ffamily%3DArchitects%2BDaughter;fontSize=20;" vertex="1" parent="1">
          <mxGeometry x="354" y="760" width="120" height="60" as="geometry" />
        </mxCell>
        <mxCell id="Niy6fWAZyJpjJj73x80J-22" value="int a, b, c&lt;br&gt;int max = 0" style="shape=parallelogram;perimeter=parallelogramPerimeter;whiteSpace=wrap;html=1;fixedSize=1;sketch=1;hachureGap=4;jiggle=2;curveFitting=1;fontFamily=Architects Daughter;fontSource=https%3A%2F%2Ffonts.googleapis.com%2Fcss%3Ffamily%3DArchitects%2BDaughter;fontSize=20;" vertex="1" parent="1">
          <mxGeometry x="337" y="260" width="150" height="60" as="geometry" />
        </mxCell>
      </root>
    </mxGraphModel>
  </diagram>
  <diagram id="uooHVEC8xhoM1Nt2gcKn" name="Страница 3">
    <mxGraphModel dx="1695" dy="970" grid="1" gridSize="10" guides="1" tooltips="1" connect="1" arrows="1" fold="1" page="1" pageScale="1" pageWidth="827" pageHeight="1169" math="0" shadow="0">
      <root>
        <mxCell id="0" />
        <mxCell id="1" parent="0" />
        <mxCell id="_35Oyb5vwlgUEUPM9ltL-1" value="&lt;div style=&quot;text-align: justify;&quot;&gt;&lt;font style=&quot;background-color: rgb(0, 0, 0);&quot; color=&quot;#ffffff&quot;&gt;Задача 3:&lt;span style=&quot;font-family: Roboto, &amp;quot;San Francisco&amp;quot;, &amp;quot;Helvetica Neue&amp;quot;, Helvetica, Arial; font-size: 15px; text-align: start;&quot;&gt;&amp;nbsp;Напишите программу, которая на вход принимает число и выдаёт, является ли число чётным (делится ли оно на два без остатка).&lt;/span&gt;&lt;/font&gt;&lt;/div&gt;&lt;font style=&quot;background-color: rgb(0, 0, 0);&quot; color=&quot;#ffffff&quot;&gt;&lt;span style=&quot;font-family: Roboto, &amp;quot;San Francisco&amp;quot;, &amp;quot;Helvetica Neue&amp;quot;, Helvetica, Arial; font-size: 15px; text-align: start;&quot;&gt;&lt;div style=&quot;text-align: justify;&quot;&gt;4 -&amp;gt; да&lt;/div&gt;&lt;/span&gt;&lt;span style=&quot;font-family: Roboto, &amp;quot;San Francisco&amp;quot;, &amp;quot;Helvetica Neue&amp;quot;, Helvetica, Arial; font-size: 15px; text-align: start;&quot;&gt;&lt;div style=&quot;text-align: justify;&quot;&gt;-3 -&amp;gt; нет&lt;/div&gt;&lt;/span&gt;&lt;span style=&quot;font-family: Roboto, &amp;quot;San Francisco&amp;quot;, &amp;quot;Helvetica Neue&amp;quot;, Helvetica, Arial; font-size: 15px; text-align: start;&quot;&gt;&lt;div style=&quot;text-align: justify;&quot;&gt;7 -&amp;gt; нет&lt;/div&gt;&lt;/span&gt;&lt;/font&gt;" style="text;html=1;strokeColor=none;fillColor=none;align=center;verticalAlign=middle;whiteSpace=wrap;rounded=0;fontSize=20;fontFamily=Architects Daughter;" vertex="1" parent="1">
          <mxGeometry x="30" width="590" height="180" as="geometry" />
        </mxCell>
        <mxCell id="Auzx_zRLx2_Dl0QF7cez-5" value="" style="edgeStyle=orthogonalEdgeStyle;rounded=0;sketch=1;hachureGap=4;jiggle=2;curveFitting=1;orthogonalLoop=1;jettySize=auto;html=1;fontFamily=Architects Daughter;fontSource=https%3A%2F%2Ffonts.googleapis.com%2Fcss%3Ffamily%3DArchitects%2BDaughter;fontSize=16;" edge="1" parent="1" target="Auzx_zRLx2_Dl0QF7cez-3">
          <mxGeometry relative="1" as="geometry">
            <mxPoint x="414" y="210" as="sourcePoint" />
          </mxGeometry>
        </mxCell>
        <mxCell id="Auzx_zRLx2_Dl0QF7cez-6" value="" style="edgeStyle=orthogonalEdgeStyle;rounded=0;sketch=1;hachureGap=4;jiggle=2;curveFitting=1;orthogonalLoop=1;jettySize=auto;html=1;fontFamily=Architects Daughter;fontSource=https%3A%2F%2Ffonts.googleapis.com%2Fcss%3Ffamily%3DArchitects%2BDaughter;fontSize=16;" edge="1" parent="1" source="Auzx_zRLx2_Dl0QF7cez-3" target="Auzx_zRLx2_Dl0QF7cez-4">
          <mxGeometry relative="1" as="geometry" />
        </mxCell>
        <mxCell id="Auzx_zRLx2_Dl0QF7cez-3" value="int num" style="shape=parallelogram;perimeter=parallelogramPerimeter;whiteSpace=wrap;html=1;fixedSize=1;sketch=1;hachureGap=4;jiggle=2;curveFitting=1;fontFamily=Architects Daughter;fontSource=https%3A%2F%2Ffonts.googleapis.com%2Fcss%3Ffamily%3DArchitects%2BDaughter;fontSize=20;" vertex="1" parent="1">
          <mxGeometry x="339" y="270" width="150" height="60" as="geometry" />
        </mxCell>
        <mxCell id="Auzx_zRLx2_Dl0QF7cez-11" value="Yes" style="edgeStyle=orthogonalEdgeStyle;rounded=0;sketch=1;hachureGap=4;jiggle=2;curveFitting=1;orthogonalLoop=1;jettySize=auto;html=1;exitX=0;exitY=0.5;exitDx=0;exitDy=0;entryX=0.5;entryY=0;entryDx=0;entryDy=0;fontFamily=Architects Daughter;fontSource=https%3A%2F%2Ffonts.googleapis.com%2Fcss%3Ffamily%3DArchitects%2BDaughter;fontSize=16;" edge="1" parent="1" source="Auzx_zRLx2_Dl0QF7cez-4" target="Auzx_zRLx2_Dl0QF7cez-9">
          <mxGeometry relative="1" as="geometry" />
        </mxCell>
        <mxCell id="Auzx_zRLx2_Dl0QF7cez-12" value="No" style="edgeStyle=orthogonalEdgeStyle;rounded=0;sketch=1;hachureGap=4;jiggle=2;curveFitting=1;orthogonalLoop=1;jettySize=auto;html=1;exitX=1;exitY=0.5;exitDx=0;exitDy=0;entryX=0.5;entryY=0;entryDx=0;entryDy=0;fontFamily=Architects Daughter;fontSource=https%3A%2F%2Ffonts.googleapis.com%2Fcss%3Ffamily%3DArchitects%2BDaughter;fontSize=16;" edge="1" parent="1" source="Auzx_zRLx2_Dl0QF7cez-4" target="Auzx_zRLx2_Dl0QF7cez-10">
          <mxGeometry relative="1" as="geometry" />
        </mxCell>
        <mxCell id="Auzx_zRLx2_Dl0QF7cez-4" value="num % 2 = 0" style="rhombus;whiteSpace=wrap;html=1;sketch=1;hachureGap=4;jiggle=2;curveFitting=1;fontFamily=Architects Daughter;fontSource=https%3A%2F%2Ffonts.googleapis.com%2Fcss%3Ffamily%3DArchitects%2BDaughter;fontSize=20;" vertex="1" parent="1">
          <mxGeometry x="316" y="400" width="196" height="80" as="geometry" />
        </mxCell>
        <mxCell id="Auzx_zRLx2_Dl0QF7cez-8" value="Start" style="rounded=1;whiteSpace=wrap;html=1;sketch=1;hachureGap=4;jiggle=2;curveFitting=1;fontFamily=Architects Daughter;fontSource=https%3A%2F%2Ffonts.googleapis.com%2Fcss%3Ffamily%3DArchitects%2BDaughter;fontSize=20;" vertex="1" parent="1">
          <mxGeometry x="354" y="150" width="120" height="60" as="geometry" />
        </mxCell>
        <mxCell id="Auzx_zRLx2_Dl0QF7cez-15" style="edgeStyle=orthogonalEdgeStyle;rounded=0;sketch=1;hachureGap=4;jiggle=2;curveFitting=1;orthogonalLoop=1;jettySize=auto;html=1;exitX=0.5;exitY=1;exitDx=0;exitDy=0;fontFamily=Architects Daughter;fontSource=https%3A%2F%2Ffonts.googleapis.com%2Fcss%3Ffamily%3DArchitects%2BDaughter;fontSize=16;" edge="1" parent="1" source="Auzx_zRLx2_Dl0QF7cez-9" target="Auzx_zRLx2_Dl0QF7cez-13">
          <mxGeometry relative="1" as="geometry" />
        </mxCell>
        <mxCell id="Auzx_zRLx2_Dl0QF7cez-9" value="Print(Yes)" style="rounded=0;whiteSpace=wrap;html=1;sketch=1;hachureGap=4;jiggle=2;curveFitting=1;fontFamily=Architects Daughter;fontSource=https%3A%2F%2Ffonts.googleapis.com%2Fcss%3Ffamily%3DArchitects%2BDaughter;fontSize=20;" vertex="1" parent="1">
          <mxGeometry x="196" y="555" width="120" height="60" as="geometry" />
        </mxCell>
        <mxCell id="Auzx_zRLx2_Dl0QF7cez-14" style="edgeStyle=orthogonalEdgeStyle;rounded=0;sketch=1;hachureGap=4;jiggle=2;curveFitting=1;orthogonalLoop=1;jettySize=auto;html=1;exitX=0.5;exitY=1;exitDx=0;exitDy=0;entryX=0.5;entryY=0;entryDx=0;entryDy=0;fontFamily=Architects Daughter;fontSource=https%3A%2F%2Ffonts.googleapis.com%2Fcss%3Ffamily%3DArchitects%2BDaughter;fontSize=16;" edge="1" parent="1" source="Auzx_zRLx2_Dl0QF7cez-10" target="Auzx_zRLx2_Dl0QF7cez-13">
          <mxGeometry relative="1" as="geometry" />
        </mxCell>
        <mxCell id="Auzx_zRLx2_Dl0QF7cez-10" value="Print(No)" style="rounded=0;whiteSpace=wrap;html=1;sketch=1;hachureGap=4;jiggle=2;curveFitting=1;fontFamily=Architects Daughter;fontSource=https%3A%2F%2Ffonts.googleapis.com%2Fcss%3Ffamily%3DArchitects%2BDaughter;fontSize=20;" vertex="1" parent="1">
          <mxGeometry x="512" y="555" width="120" height="60" as="geometry" />
        </mxCell>
        <mxCell id="Auzx_zRLx2_Dl0QF7cez-13" value="Finish" style="rounded=1;whiteSpace=wrap;html=1;sketch=1;hachureGap=4;jiggle=2;curveFitting=1;fontFamily=Architects Daughter;fontSource=https%3A%2F%2Ffonts.googleapis.com%2Fcss%3Ffamily%3DArchitects%2BDaughter;fontSize=20;" vertex="1" parent="1">
          <mxGeometry x="354" y="740" width="120" height="60" as="geometry" />
        </mxCell>
      </root>
    </mxGraphModel>
  </diagram>
  <diagram id="VsCLsfrlGMoLajO24W88" name="Страница 4">
    <mxGraphModel dx="2034" dy="1164" grid="1" gridSize="10" guides="1" tooltips="1" connect="1" arrows="1" fold="1" page="1" pageScale="1" pageWidth="827" pageHeight="1169" math="0" shadow="0">
      <root>
        <mxCell id="0" />
        <mxCell id="1" parent="0" />
        <mxCell id="OAFcNeH_0hbF6s_QFp7n-1" value="&lt;div style=&quot;text-align: justify;&quot;&gt;&lt;font style=&quot;background-color: rgb(0, 0, 0);&quot; color=&quot;#ffffff&quot;&gt;&lt;br&gt;&lt;/font&gt;&lt;/div&gt;&lt;font style=&quot;background-color: rgb(0, 0, 0);&quot; color=&quot;#ffffff&quot;&gt;&lt;strong style=&quot;box-sizing: border-box; font-weight: 700; font-family: Roboto, &amp;quot;San Francisco&amp;quot;, &amp;quot;Helvetica Neue&amp;quot;, Helvetica, Arial; font-size: 15px; font-style: normal; font-variant-ligatures: normal; font-variant-caps: normal; letter-spacing: normal; orphans: 2; text-align: start; text-indent: 0px; text-transform: none; widows: 2; word-spacing: 0px; -webkit-text-stroke-width: 0px; text-decoration-thickness: initial; text-decoration-style: initial; text-decoration-color: initial;&quot;&gt;&lt;div style=&quot;text-align: justify;&quot;&gt;&lt;span style=&quot;box-sizing: border-box;&quot;&gt;Задача 8:&lt;/span&gt;&lt;span style=&quot;font-weight: 400;&quot;&gt;&amp;nbsp;Напишите программу, которая на вход принимает число (N), а на выходе показывает все чётные числа от 1 до N.&lt;/span&gt;&lt;/div&gt;&lt;/strong&gt;&lt;span style=&quot;font-family: Roboto, &amp;quot;San Francisco&amp;quot;, &amp;quot;Helvetica Neue&amp;quot;, Helvetica, Arial; font-size: 15px; font-style: normal; font-variant-ligatures: normal; font-variant-caps: normal; font-weight: 400; letter-spacing: normal; orphans: 2; text-align: start; text-indent: 0px; text-transform: none; widows: 2; word-spacing: 0px; -webkit-text-stroke-width: 0px; text-decoration-thickness: initial; text-decoration-style: initial; text-decoration-color: initial; float: none; display: inline !important;&quot;&gt;&lt;div style=&quot;text-align: justify;&quot;&gt;5 -&amp;gt; 2, 4&lt;/div&gt;&lt;/span&gt;&lt;span style=&quot;font-family: Roboto, &amp;quot;San Francisco&amp;quot;, &amp;quot;Helvetica Neue&amp;quot;, Helvetica, Arial; font-size: 15px; font-style: normal; font-variant-ligatures: normal; font-variant-caps: normal; font-weight: 400; letter-spacing: normal; orphans: 2; text-align: start; text-indent: 0px; text-transform: none; widows: 2; word-spacing: 0px; -webkit-text-stroke-width: 0px; text-decoration-thickness: initial; text-decoration-style: initial; text-decoration-color: initial; float: none; display: inline !important;&quot;&gt;&lt;div style=&quot;text-align: justify;&quot;&gt;8 -&amp;gt; 2, 4, 6, 8&lt;/div&gt;&lt;/span&gt;&lt;/font&gt;&lt;div style=&quot;text-align: justify;&quot;&gt;&lt;br&gt;&lt;/div&gt;" style="text;html=1;strokeColor=none;fillColor=none;align=center;verticalAlign=middle;whiteSpace=wrap;rounded=0;fontSize=20;fontFamily=Architects Daughter;" vertex="1" parent="1">
          <mxGeometry x="20" y="20" width="550" height="130" as="geometry" />
        </mxCell>
        <mxCell id="t4NLKll-tKLaFWfz2cmk-2" value="" style="edgeStyle=orthogonalEdgeStyle;rounded=0;sketch=1;hachureGap=4;jiggle=2;curveFitting=1;orthogonalLoop=1;jettySize=auto;html=1;fontFamily=Architects Daughter;fontSource=https%3A%2F%2Ffonts.googleapis.com%2Fcss%3Ffamily%3DArchitects%2BDaughter;fontSize=16;" edge="1" parent="1" source="OAFcNeH_0hbF6s_QFp7n-2" target="t4NLKll-tKLaFWfz2cmk-1">
          <mxGeometry relative="1" as="geometry" />
        </mxCell>
        <mxCell id="OAFcNeH_0hbF6s_QFp7n-2" value="Start" style="rounded=1;whiteSpace=wrap;html=1;sketch=1;hachureGap=4;jiggle=2;curveFitting=1;fontFamily=Architects Daughter;fontSource=https%3A%2F%2Ffonts.googleapis.com%2Fcss%3Ffamily%3DArchitects%2BDaughter;fontSize=20;" vertex="1" parent="1">
          <mxGeometry x="354" y="170" width="120" height="60" as="geometry" />
        </mxCell>
        <mxCell id="wENmw7hVZckWaCi958Cg-1" value="" style="edgeStyle=orthogonalEdgeStyle;rounded=0;sketch=1;hachureGap=4;jiggle=2;curveFitting=1;orthogonalLoop=1;jettySize=auto;html=1;fontFamily=Architects Daughter;fontSource=https%3A%2F%2Ffonts.googleapis.com%2Fcss%3Ffamily%3DArchitects%2BDaughter;fontSize=16;" edge="1" parent="1" source="t4NLKll-tKLaFWfz2cmk-1" target="t4NLKll-tKLaFWfz2cmk-3">
          <mxGeometry relative="1" as="geometry" />
        </mxCell>
        <mxCell id="t4NLKll-tKLaFWfz2cmk-1" value="int num" style="shape=parallelogram;perimeter=parallelogramPerimeter;whiteSpace=wrap;html=1;fixedSize=1;sketch=1;hachureGap=4;jiggle=2;curveFitting=1;fontFamily=Architects Daughter;fontSource=https%3A%2F%2Ffonts.googleapis.com%2Fcss%3Ffamily%3DArchitects%2BDaughter;fontSize=20;" vertex="1" parent="1">
          <mxGeometry x="354" y="300" width="120" height="60" as="geometry" />
        </mxCell>
        <mxCell id="wENmw7hVZckWaCi958Cg-3" value="" style="edgeStyle=orthogonalEdgeStyle;rounded=0;sketch=1;hachureGap=4;jiggle=2;curveFitting=1;orthogonalLoop=1;jettySize=auto;html=1;fontFamily=Architects Daughter;fontSource=https%3A%2F%2Ffonts.googleapis.com%2Fcss%3Ffamily%3DArchitects%2BDaughter;fontSize=16;" edge="1" parent="1" source="t4NLKll-tKLaFWfz2cmk-3" target="wENmw7hVZckWaCi958Cg-2">
          <mxGeometry relative="1" as="geometry" />
        </mxCell>
        <mxCell id="wENmw7hVZckWaCi958Cg-10" style="edgeStyle=orthogonalEdgeStyle;rounded=0;sketch=1;hachureGap=4;jiggle=2;curveFitting=1;orthogonalLoop=1;jettySize=auto;html=1;exitX=1;exitY=0.5;exitDx=0;exitDy=0;fontFamily=Architects Daughter;fontSource=https%3A%2F%2Ffonts.googleapis.com%2Fcss%3Ffamily%3DArchitects%2BDaughter;fontSize=16;" edge="1" parent="1" source="t4NLKll-tKLaFWfz2cmk-3" target="wENmw7hVZckWaCi958Cg-9">
          <mxGeometry relative="1" as="geometry">
            <Array as="points">
              <mxPoint x="582" y="480" />
              <mxPoint x="582" y="880" />
              <mxPoint x="414" y="880" />
            </Array>
          </mxGeometry>
        </mxCell>
        <mxCell id="t4NLKll-tKLaFWfz2cmk-3" value="i = 1, i &amp;lt;= num, i++" style="shape=hexagon;perimeter=hexagonPerimeter2;whiteSpace=wrap;html=1;fixedSize=1;sketch=1;hachureGap=4;jiggle=2;curveFitting=1;fontFamily=Architects Daughter;fontSource=https%3A%2F%2Ffonts.googleapis.com%2Fcss%3Ffamily%3DArchitects%2BDaughter;fontSize=20;" vertex="1" parent="1">
          <mxGeometry x="266" y="440" width="296" height="80" as="geometry" />
        </mxCell>
        <mxCell id="wENmw7hVZckWaCi958Cg-6" value="Yes" style="edgeStyle=orthogonalEdgeStyle;rounded=0;sketch=1;hachureGap=4;jiggle=2;curveFitting=1;orthogonalLoop=1;jettySize=auto;html=1;fontFamily=Architects Daughter;fontSource=https%3A%2F%2Ffonts.googleapis.com%2Fcss%3Ffamily%3DArchitects%2BDaughter;fontSize=16;" edge="1" parent="1" source="wENmw7hVZckWaCi958Cg-2" target="wENmw7hVZckWaCi958Cg-5">
          <mxGeometry relative="1" as="geometry" />
        </mxCell>
        <mxCell id="wENmw7hVZckWaCi958Cg-8" value="No" style="edgeStyle=orthogonalEdgeStyle;rounded=0;sketch=1;hachureGap=4;jiggle=2;curveFitting=1;orthogonalLoop=1;jettySize=auto;html=1;exitX=0;exitY=0.5;exitDx=0;exitDy=0;entryX=0.5;entryY=0;entryDx=0;entryDy=0;fontFamily=Architects Daughter;fontSource=https%3A%2F%2Ffonts.googleapis.com%2Fcss%3Ffamily%3DArchitects%2BDaughter;fontSize=16;" edge="1" parent="1" source="wENmw7hVZckWaCi958Cg-2" target="t4NLKll-tKLaFWfz2cmk-3">
          <mxGeometry relative="1" as="geometry">
            <Array as="points">
              <mxPoint x="210" y="625" />
              <mxPoint x="210" y="420" />
              <mxPoint x="414" y="420" />
            </Array>
          </mxGeometry>
        </mxCell>
        <mxCell id="wENmw7hVZckWaCi958Cg-2" value="i % 2 = 0" style="rhombus;whiteSpace=wrap;html=1;sketch=1;hachureGap=4;jiggle=2;curveFitting=1;fontFamily=Architects Daughter;fontSource=https%3A%2F%2Ffonts.googleapis.com%2Fcss%3Ffamily%3DArchitects%2BDaughter;fontSize=20;" vertex="1" parent="1">
          <mxGeometry x="331" y="585" width="166" height="80" as="geometry" />
        </mxCell>
        <mxCell id="wENmw7hVZckWaCi958Cg-7" style="edgeStyle=orthogonalEdgeStyle;rounded=0;sketch=1;hachureGap=4;jiggle=2;curveFitting=1;orthogonalLoop=1;jettySize=auto;html=1;exitX=0;exitY=0.5;exitDx=0;exitDy=0;entryX=0.5;entryY=0;entryDx=0;entryDy=0;fontFamily=Architects Daughter;fontSource=https%3A%2F%2Ffonts.googleapis.com%2Fcss%3Ffamily%3DArchitects%2BDaughter;fontSize=16;" edge="1" parent="1" source="wENmw7hVZckWaCi958Cg-5" target="t4NLKll-tKLaFWfz2cmk-3">
          <mxGeometry relative="1" as="geometry">
            <Array as="points">
              <mxPoint x="180" y="770" />
              <mxPoint x="180" y="420" />
              <mxPoint x="414" y="420" />
            </Array>
          </mxGeometry>
        </mxCell>
        <mxCell id="wENmw7hVZckWaCi958Cg-5" value="Print(i)" style="rounded=0;whiteSpace=wrap;html=1;sketch=1;hachureGap=4;jiggle=2;curveFitting=1;fontFamily=Architects Daughter;fontSource=https%3A%2F%2Ffonts.googleapis.com%2Fcss%3Ffamily%3DArchitects%2BDaughter;fontSize=20;" vertex="1" parent="1">
          <mxGeometry x="354" y="740" width="120" height="60" as="geometry" />
        </mxCell>
        <mxCell id="wENmw7hVZckWaCi958Cg-9" value="Finish" style="rounded=1;whiteSpace=wrap;html=1;sketch=1;hachureGap=4;jiggle=2;curveFitting=1;fontFamily=Architects Daughter;fontSource=https%3A%2F%2Ffonts.googleapis.com%2Fcss%3Ffamily%3DArchitects%2BDaughter;fontSize=20;" vertex="1" parent="1">
          <mxGeometry x="354" y="910" width="120" height="60" as="geometry" />
        </mxCell>
      </root>
    </mxGraphModel>
  </diagram>
</mxfile>
